/* XPM */
static char * close_xpm[] = {
"24 24 30 1",
" 	c None",
".	c #703C2B",
"+	c #AA4826",
"@	c #CD4E22",
"#	c #E15221",
"$	c #A94726",
"%	c #6E3C2B",
"&	c #D04F22",
"*	c #E95420",
"=	c #CF4F22",
"-	c #964427",
";	c #954327",
">	c #6B3B2B",
",	c #D14F22",
"'	c #E95522",
")	c #F9D2C4",
"!	c #F29677",
"~	c #6F3C2B",
"{	c #F19676",
"]	c #FFFDFC",
"^	c #F29A7C",
"/	c #A84726",
"(	c #CE4F22",
"_	c #E05221",
":	c #F9D1C4",
"<	c #6D3C2B",
"[	c #6A3B2B",
"}	c #944327",
"|	c #693B2B",
"1	c #CC4E23",
"                        ",
"                        ",
"        .+@##@$.        ",
"      %&********=%      ",
"     -************-     ",
"    -**************;    ",
"   %****************>   ",
"   ,****'******'****&   ",
"  .****')!****!)'****~  ",
"  $*****{]^**{]^*****/  ",
"  (******{]^{]^******(  ",
"  _*******!]]!*******_  ",
"  _*******!]]!*******_  ",
"  (******{]^{]^******@  ",
"  /*****{]^**{]^*****/  ",
"  .****':!****!)'****%  ",
"   &****'******'****=   ",
"   <****************[   ",
"    -**************}    ",
"     ;************}     ",
"      >=********=|      ",
"        ~/1##1/~        ",
"                        ",
"                        "};
