/* XPM */
static char * maximize_xpm[] = {
"16 16 3 1",
" 	c None",
".	c #F7F7F7",
"+	c #FFFFFF",
"                ",
"                ",
"                ",
"                ",
"    ........    ",
"    .++++++.    ",
"    .+    +.    ",
"    .+    +.    ",
"    .+    +.    ",
"    .+    +.    ",
"    .++++++.    ",
"    ........    ",
"                ",
"                ",
"                ",
"                "};
