/* XPM */
static char * restore_xpm[] = {
"16 16 4 1",
" 	c None",
".	c #959494",
"+	c #FFFFFF",
"@	c #F7F7F7",
"                ",
"       .......  ",
"      ........  ",
"            ..  ",
"   ++++++++ ..  ",
"   +@@@@@@+ ..  ",
"   +@    @+ ..  ",
"   +@    @+ .   ",
"   +@    ++     ",
"   +@    ++     ",
"   +@@@@@@+     ",
"   ++++++++     ",
"                ",
"                ",
"                ",
"                "};
