/* XPM */
static char * close_xpm[] = {
"24 26 45 1",
" 	c None",
".	c #DD7F87",
"+	c #E04B56",
"@	c #E23D47",
"#	c #DF4C56",
"$	c #DC8087",
"%	c #DFA3A9",
"&	c #E23E48",
"*	c #F04D54",
"=	c #F25056",
"-	c #E13E48",
";	c #DFA4A9",
">	c #E8414A",
",	c #E7414A",
"'	c #EB4E54",
")	c #EF4F55",
"!	c #E23F49",
"~	c #DC7F86",
"{	c #EC4E54",
"]	c #812B2E",
"^	c #8E2F33",
"/	c #E84D52",
"(	c #822B2E",
"_	c #F04E54",
":	c #DE8189",
"<	c #DF4B55",
"[	c #79282B",
"}	c #8D2F32",
"|	c #DF4E56",
"1	c #E33E49",
"2	c #8C2E32",
"3	c #E74C52",
"4	c #E64C52",
"5	c #E04C56",
"6	c #DB7F86",
"7	c #DD8289",
"8	c #E1D1D4",
"9	c #E24049",
"0	c #DDA2A7",
"a	c #DDA4A9",
"b	c #E0D1D2",
"c	c #DD8088",
"d	c #DF4D57",
"e	c #DD8189",
"f	c #E0D1D3",
"                        ",
"                        ",
"                        ",
"                        ",
"                        ",
"                        ",
"                        ",
"         .+@@#$         ",
"       %&*====*-;       ",
"      %>========,;      ",
"      &==')==)'==!      ",
"     ~*={]^//^({=_:     ",
"     <==)^[}}[^)==|     ",
"     1===/^[[23===&     ",
"     &===/^[[24===!     ",
"     5==)^[}}[^)==|     ",
"     6*={(^//^({=*7     ",
"     8-=={)==){==9      ",
"      0,========,a      ",
"       0!_====*9a       ",
"        bcd&&def        ",
"                        ",
"                        ",
"                        ",
"                        ",
"                        "};
