/* XPM */
static char * maximize_xpm[] = {
"24 26 40 1",
" 	c None",
".	c #D2E0D3",
"+	c #76D27C",
"@	c #39D245",
"#	c #28D436",
"$	c #28D435",
"%	c #76D27B",
"&	c #9DD7A1",
"*	c #2AD436",
"=	c #36E746",
"-	c #39EA49",
";	c #29D436",
">	c #9ED8A2",
",	c #2CDB3A",
"'	c #2BDB3A",
")	c #2AD437",
"!	c #75D27B",
"~	c #34D643",
"{	c #1F7F28",
"]	c #1C7524",
"^	c #269D31",
"/	c #78D27D",
"(	c #38D244",
"_	c #3BD245",
":	c #34D542",
"<	c #35D843",
"[	c #1F8028",
"}	c #39D345",
"|	c #75D17A",
"1	c #78D37D",
"2	c #D1DFD2",
"3	c #2BD437",
"4	c #D1DED2",
"5	c #9CD6A0",
"6	c #2BDB39",
"7	c #9ED6A2",
"8	c #D0DED0",
"9	c #77D17C",
"0	c #3BD246",
"a	c #D0DDD1",
"                        ",
"                        ",
"                        ",
"                        ",
"                        ",
"                        ",
"                        ",
"        .+@#$@%.        ",
"       &*=----=;>       ",
"      &,--------'>      ",
"     .*----------)      ",
"     !=---~{]]^--=/     ",
"     (---~-~{]]---_     ",
"     )---{:-<[]---;     ",
"     *---]{:-<[---)     ",
"     }---]]{~-~---_     ",
"     |=--^]]{~---=1     ",
"     2;----------34     ",
"      5'--------67      ",
"       5)=----=37       ",
"        890;;0/a        ",
"                        ",
"                        ",
"                        ",
"                        ",
"                        "};
