/* XPM */
static char * minimize_xpm[] = {
"24 26 41 1",
" 	c None",
".	c #E3DDD1",
"+	c #E1C074",
"@	c #E5B238",
"#	c #E9B025",
"$	c #E8B025",
"%	c #E4B338",
"&	c #E0C074",
"*	c #E1CC9C",
"=	c #E9B126",
"-	c #F8C334",
";	c #FAC536",
">	c #E8B126",
",	c #E1CC9D",
"'	c #EEB729",
")	c #E9B227",
"!	c #E3DDD2",
"~	c #E0C073",
"{	c #F8C333",
"]	c #E0C076",
"^	c #E4B236",
"/	c #E5B338",
"(	c #997921",
"_	c #7D621B",
":	c #9A7921",
"<	c #9B7A21",
"[	c #E9B127",
"}	c #E5B237",
"|	c #DFBF73",
"1	c #F7C233",
"2	c #DFC076",
"3	c #E2DCD0",
"4	c #E9B228",
"5	c #E1DBD1",
"6	c #DFCA9B",
"7	c #EEB628",
"8	c #DFCB9D",
"9	c #E0DBCF",
"0	c #DFBF75",
"a	c #DFBF76",
"b	c #E0DAD0",
"                        ",
"                        ",
"                        ",
"                        ",
"                        ",
"                        ",
"                        ",
"        .+@#$%&.        ",
"       *=-;;;;->,       ",
"      *';;;;;;;;',      ",
"     .=;;;;;;;;;;)!     ",
"     ~-;;;;;;;;;;{]     ",
"     ^;;;;;;;;;;;;/     ",
"     );;(______:;;>     ",
"     =;;:______<;;[     ",
"     };;;;;;;;;;;;/     ",
"     |-;;;;;;;;;;12     ",
"     3>;;;;;;;;;;45     ",
"      6';;;;;;;;78      ",
"       6[{;;;;148       ",
"        90/==/ab        ",
"                        ",
"                        ",
"                        ",
"                        ",
"                        "};
