/* XPM */
static char * restore_xpm[] = {
"24 26 37 1",
" 	c None",
".	c #D2E0D3",
"+	c #76D27C",
"@	c #39D245",
"#	c #28D436",
"$	c #28D435",
"%	c #76D27B",
"&	c #9DD7A1",
"*	c #2AD436",
"=	c #36E746",
"-	c #39EA49",
";	c #29D436",
">	c #9ED8A2",
",	c #2CDB3A",
"'	c #2BDB3A",
")	c #1F7F28",
"!	c #2AD437",
"~	c #75D27B",
"{	c #1C7524",
"]	c #78D27D",
"^	c #38D244",
"/	c #3BD245",
"(	c #269D31",
"_	c #39D345",
":	c #75D17A",
"<	c #1F8028",
"[	c #78D37D",
"}	c #D1DFD2",
"|	c #2BD437",
"1	c #D1DED2",
"2	c #9CD6A0",
"3	c #2BDB39",
"4	c #9ED6A2",
"5	c #D0DED0",
"6	c #77D17C",
"7	c #3BD246",
"8	c #D0DDD1",
"                        ",
"                        ",
"                        ",
"                        ",
"                        ",
"                        ",
"                        ",
"        .+@#$@%.        ",
"       &*=----=;>       ",
"      &,----$---'>      ",
"     .*-----)$---!      ",
"     ~=-----{)$--=]     ",
"     ^------{{)$--/     ",
"     !------({{)$-;     ",
"     *-$){{(------!     ",
"     _--$){{------/     ",
"     :=--$<{-----=[     ",
"     };---$<-----|1     ",
"      2'---$----34      ",
"       2!=----=|4       ",
"        567;;7]8        ",
"                        ",
"                        ",
"                        ",
"                        ",
"                        "};
